<?xml version="1.0" encoding="UTF-8"?>
<svg width="24px" height="20px" viewBox="0 0 24 20" version="1.1" xmlns="http://www.w3.org/2000/svg" xmlns:xlink="http://www.w3.org/1999/xlink">
    <!-- Generator: sketchtool 49.3 (51167) - http://www.bohemiancoding.com/sketch -->
    <title>AF837E18-D6F3-412D-90C0-567AD543C80D</title>
    <desc>Created with sketchtool.</desc>
    <defs></defs>
    <g id="Page-3" stroke="none" stroke-width="1" fill="none" fill-rule="evenodd">
        <g id="ev-acc-gen-0" transform="translate(-976.000000, -724.000000)" fill="#DDDDDD">
            <path d="M999.33805,724.369743 C998.385817,724.947748 997.333618,725.368115 996.209009,725.593037 C995.313166,724.612608 994.032841,724 992.615385,724 C989.898379,724 987.693376,726.260753 987.693376,729.048888 C987.693376,729.444904 987.735669,729.828745 987.820255,730.198489 C983.728086,729.987665 980.100499,727.980028 977.670574,724.921475 C977.246362,725.669933 977.004139,726.538221 977.004139,727.4629 C977.004139,729.213574 977.873068,730.759192 979.195044,731.664646 C978.388914,731.640296 977.628281,731.410888 976.963127,731.035378 L976.963127,731.096895 C976.963127,733.544122 978.660615,735.585721 980.91496,736.04774 C980.502283,736.166288 980.066537,736.225883 979.617334,736.225883 C979.300136,736.225883 978.990628,736.195125 978.690732,736.136171 C979.317438,738.141244 981.134756,739.601634 983.289777,739.640723 C981.605105,740.995381 979.480843,741.802793 977.174592,741.802793 C976.777294,741.802793 976.384482,741.779724 976,741.733586 C978.178731,743.163859 980.768216,744.000107 983.54802,744.000107 C992.605773,744.000107 997.557258,736.307906 997.557258,729.635223 C997.557258,729.415427 997.553414,729.196273 997.545083,728.980963 C998.506929,728.269031 999.342536,727.380237 1000,726.367768 C999.118255,726.76891 998.168585,727.040611 997.172777,727.162363 C998.189731,726.538221 998.970229,725.548821 999.33805,724.369743" id="Twitter"></path>
        </g>
    </g>
</svg>